<?xml version="1.0" encoding="UTF-8" standalone="no"?>
<!-- Created with Inkscape (http://www.inkscape.org/) -->

<svg
   width="210mm"
   height="297mm"
   viewBox="0 0 210 297"
   version="1.1"
   id="svg1"
   xml:space="preserve"
   inkscape:version="1.4 (86a8ad7, 2024-10-11)"
   sodipodi:docname="conect white icons.svg"
   xmlns:inkscape="http://www.inkscape.org/namespaces/inkscape"
   xmlns:sodipodi="http://sodipodi.sourceforge.net/DTD/sodipodi-0.dtd"
   xmlns="http://www.w3.org/2000/svg"
   xmlns:svg="http://www.w3.org/2000/svg"><sodipodi:namedview
     id="namedview1"
     pagecolor="#505050"
     bordercolor="#ffffff"
     borderopacity="1"
     inkscape:showpageshadow="0"
     inkscape:pageopacity="0"
     inkscape:pagecheckerboard="1"
     inkscape:deskcolor="#505050"
     inkscape:document-units="mm"
     inkscape:zoom="2.8284271"
     inkscape:cx="495.85863"
     inkscape:cy="567.80674"
     inkscape:window-width="1920"
     inkscape:window-height="1021"
     inkscape:window-x="1014"
     inkscape:window-y="1076"
     inkscape:window-maximized="1"
     inkscape:current-layer="layer1" /><defs
     id="defs1" /><g
     inkscape:label="Layer 1"
     inkscape:groupmode="layer"
     id="layer1"><g
       style="fill:none"
       id="g1"
       transform="matrix(0.26458333,0,0,0.26458333,92.653713,140.4985)"><path
         d="M 44,24.1213 C 44,13.008 35.0467,4 24,4 12.9533,4 4,13.008 4,24.1213 4,34.1667 11.312,42.4907 20.8747,44 V 29.9387 H 15.7973 V 24.12 h 5.0774 v -4.432 c 0,-5.0427 2.9853,-7.8293 7.5546,-7.8293 2.1867,0 4.4774,0.3933 4.4774,0.3933 v 4.952 h -2.524 c -2.484,0 -3.2574,1.552 -3.2574,3.144 v 3.7733 h 5.5467 l -0.8867,5.816 h -4.66 V 44 C 36.688,42.4907 44,34.1667 44,24.1213 Z"
         fill="#ffffff"
         id="path1" /></g><g
       style="fill:none"
       id="g2"
       transform="matrix(0.26458333,0,0,0.26458333,106.06904,140.4985)"><path
         d="M 42,8.64706 V 39.3529 c 0,0.7021 -0.2789,1.3754 -0.7753,1.8718 C 40.7283,41.7211 40.055,42 39.3529,42 H 8.64706 C 7.94502,42 7.27173,41.7211 6.77531,41.2247 6.27889,40.7283 6,40.055 6,39.3529 V 8.64706 C 6,7.94502 6.27889,7.27173 6.77531,6.77531 7.27173,6.27889 7.94502,6 8.64706,6 H 39.3529 C 40.055,6 40.7283,6.27889 41.2247,6.77531 41.7211,7.27173 42,7.94502 42,8.64706 Z M 16.5882,19.7647 h -5.2941 v 16.9412 h 5.2941 z m 0.4765,-5.8235 c 0.0028,-0.4005 -0.0733,-0.7976 -0.224,-1.1686 -0.1507,-0.371 -0.373,-0.7088 -0.6541,-0.9939 -0.2812,-0.2851 -0.6159,-0.5121 -0.9848,-0.6679 -0.3689,-0.1558 -0.7649,-0.2374 -1.1653,-0.2402 h -0.0953 c -0.8144,0 -1.5954,0.3235 -2.1713,0.8993 -0.5758,0.5759 -0.8993,1.3569 -0.8993,2.1713 0,0.8143 0.3235,1.5954 0.8993,2.1712 0.5759,0.5759 1.3569,0.8994 2.1713,0.8994 v 0 c 0.4005,0.0098 0.799,-0.0593 1.1727,-0.2035 0.3738,-0.1443 0.7154,-0.3607 1.0055,-0.637 0.2901,-0.2763 0.5229,-0.6071 0.6851,-0.9734 0.1622,-0.3663 0.2506,-0.7609 0.2602,-1.1614 z m 19.6412,12.4729 c 0,-5.0929 -3.24,-7.0729 -6.4588,-7.0729 -1.0539,-0.0528 -2.1033,0.1717 -3.0434,0.651 -0.94,0.4793 -1.738,1.1968 -2.3143,2.0807 h -0.1482 v -2.3082 h -4.9765 v 16.9412 h 5.2941 v -9.0106 c -0.0765,-0.9228 0.2142,-1.8386 0.8089,-2.5484 0.5948,-0.7097 1.4456,-1.1561 2.3676,-1.2422 h 0.2012 c 1.6835,0 2.9329,1.0588 2.9329,3.7271 v 9.0741 h 5.2941 z"
         fill="#ffffff"
         id="path1-4" /></g><g
       style="fill:none"
       id="g3"
       transform="matrix(0.26458333,0,0,0.26458333,145.60091,140.36621)"><path
         fill-rule="evenodd"
         clip-rule="evenodd"
         d="M 4.00016,14.5 C 4.00016,11.4624 6.52572,9 9.64114,9 H 38.3589 c 3.1154,0 5.6409,2.4624 5.6409,5.5 v 1.9768 c 3e-4,0.0146 3e-4,0.0291 0,0.0437 V 34.5 c 0,3.0376 -2.5255,5.5 -5.6409,5.5 H 9.64114 C 6.52572,40 4.00016,37.5376 4.00016,34.5 V 16.5205 c -2.1e-4,-0.0146 -2.1e-4,-0.0292 0,-0.0438 z m 3.0769,4.8028 V 34.5 c 0,1.3807 1.14798,2.5 2.56408,2.5 H 38.3589 c 1.4161,0 2.564,-1.1193 2.564,-2.5 V 19.3028 l -13.7938,8.9661 c -1.8948,1.2316 -4.3633,1.2316 -6.2582,0 z M 40.9229,15.6972 25.4223,25.7727 c -0.8613,0.5599 -1.9833,0.5599 -2.8446,0 L 7.07706,15.6972 V 14.5 c 0,-1.3807 1.14798,-2.5 2.56408,-2.5 H 38.3589 c 1.4161,0 2.564,1.1193 2.564,2.5 z"
         fill="#ffffff"
         id="path1-7" /></g><path
       id="path14"
       d="m 121.69734,143.29329 h 1.20438 l 5.31813,7.11121 h -1.20439 z m -1.13295,-0.56753 3.40201,4.54793 -3.4237,3.69808 h 0.77046 l 2.9972,-3.23771 2.42147,3.23771 h 2.62175 l -3.59304,-4.80431 3.18638,-3.44223 h -0.77047 l -2.76013,2.98186 -2.23017,-2.98186 z"
       fill="#ffffff"
       style="stroke-width:0.264583" /><g
       style="fill:none"
       id="g4"
       transform="matrix(0.26458333,0,0,0.26458333,131.65641,140.49375)"><path
         fill-rule="evenodd"
         clip-rule="evenodd"
         d="m 39.5841,10.8472 c 1.7201,0.4622 3.0809,1.8229 3.543,3.543 C 43.9743,17.5225 44,24.018 44,24.018 c 0,0 0,6.5212 -0.8472,9.6277 -0.4622,1.7202 -1.8229,3.0809 -3.543,3.543 C 36.5032,38.0359 24,38.0359 24,38.0359 c 0,0 -12.5032,0 -15.60975,-0.8472 C 6.67009,36.7266 5.30937,35.3659 4.84724,33.6457 4,30.5135 4,24.018 4,24.018 c 0,0 0,-6.4955 0.82157,-9.6021 0.46213,-1.7201 1.82285,-3.0809 3.543,-3.543 C 11.4711,10.0257 23.9743,10 23.9743,10 c 0,0 12.5032,0 15.6098,0.8472 z M 30.3671,24.018 19.9949,30.0257 V 18.0103 Z"
         fill="#ffffff"
         id="path1-1" /></g></g></svg>
