<svg width="48" height="48" viewBox="0 0 48 48" fill="none" xmlns="http://www.w3.org/2000/svg">
<path fill-rule="evenodd" clip-rule="evenodd" d="M4.00016 14.5C4.00016 11.4624 6.52572 9 9.64114 9H38.3589C41.4743 9 43.9998 11.4624 43.9998 14.5V16.4768C44.0001 16.4914 44.0001 16.5059 43.9998 16.5205V34.5C43.9998 37.5376 41.4743 40 38.3589 40H9.64114C6.52572 40 4.00016 37.5376 4.00016 34.5V16.5205C3.99995 16.5059 3.99995 16.4913 4.00016 16.4767V14.5ZM7.07706 19.3028V34.5C7.07706 35.8807 8.22504 37 9.64114 37H38.3589C39.775 37 40.9229 35.8807 40.9229 34.5V19.3028L27.1291 28.2689C25.2343 29.5005 22.7658 29.5005 20.8709 28.2689L7.07706 19.3028ZM40.9229 15.6972L25.4223 25.7727C24.561 26.3326 23.439 26.3326 22.5777 25.7727L7.07706 15.6972V14.5C7.07706 13.1193 8.22504 12 9.64114 12H38.3589C39.775 12 40.9229 13.1193 40.9229 14.5V15.6972Z" fill="white"/>
</svg>
