<svg width="48" height="48" viewBox="0 0 48 48" fill="none" xmlns="http://www.w3.org/2000/svg">
<path fill-rule="evenodd" clip-rule="evenodd" d="M39.5841 10.8472C41.3042 11.3094 42.665 12.6701 43.1271 14.3902C43.9743 17.5225 44 24.018 44 24.018C44 24.018 44 30.5392 43.1528 33.6457C42.6906 35.3659 41.3299 36.7266 39.6098 37.1887C36.5032 38.0359 24 38.0359 24 38.0359C24 38.0359 11.4968 38.0359 8.39025 37.1887C6.67009 36.7266 5.30937 35.3659 4.84724 33.6457C4 30.5135 4 24.018 4 24.018C4 24.018 4 17.5225 4.82157 14.4159C5.2837 12.6958 6.64442 11.335 8.36457 10.8729C11.4711 10.0257 23.9743 10 23.9743 10C23.9743 10 36.4775 10 39.5841 10.8472ZM30.3671 24.018L19.9949 30.0257V18.0103L30.3671 24.018Z" fill="white"/>
</svg>
